<svg width="146" height="131" viewBox="0 0 146 131" fill="none" xmlns="http://www.w3.org/2000/svg">
<path d="M141.17 130.298C140.547 128.626 140.622 126.774 141.38 125.151C142.137 123.528 143.514 122.266 145.207 121.643M145.207 121.643C144.369 121.952 143.478 122.094 142.585 122.062C141.692 122.03 140.815 121.824 140.004 121.457C139.193 121.089 138.463 120.567 137.858 119.92C137.252 119.273 136.781 118.514 136.473 117.685M145.207 121.643C126.706 128.447 93.3935 133.76 99.3501 105.219C102.608 89.6084 100.455 60.8567 65.5219 60.5118C61.714 60.4742 56.5759 60.805 51.4599 61.7816M51.4599 61.7816C41.7657 63.6323 32.1513 67.8011 31.821 76.1734C31.4786 84.8527 42.2101 97.3877 48.9115 80.5556C50.7868 75.8452 52.0119 69.3188 51.4599 61.7816ZM51.4599 61.7816C50.1311 43.6384 38.5057 19.6367 0.871548 1.00008" stroke="#E6E9ED"/>
</svg>
